<svg xmlns="http://www.w3.org/2000/svg" viewBox="0 0 600 180" fill="#000">
  <rect x="10"  y="20" width="6"  height="120"/>
  <rect x="20"  y="20" width="2"  height="120"/>
  <rect x="26"  y="20" width="8"  height="120"/>
  <rect x="38"  y="20" width="2"  height="120"/>
  <rect x="44"  y="20" width="4"  height="120"/>
  <rect x="52"  y="20" width="2"  height="120"/>
  <rect x="58"  y="20" width="10" height="120"/>
  <rect x="72"  y="20" width="2"  height="120"/>
  <rect x="78"  y="20" width="4"  height="120"/>
  <rect x="86"  y="20" width="2"  height="120"/>
  <rect x="92"  y="20" width="6"  height="120"/>
  <rect x="102" y="20" width="4"  height="120"/>
  <rect x="110" y="20" width="2"  height="120"/>
  <rect x="116" y="20" width="8"  height="120"/>
  <rect x="128" y="20" width="2"  height="120"/>
  <rect x="134" y="20" width="4"  height="120"/>
  <rect x="142" y="20" width="2"  height="120"/>
  <rect x="148" y="20" width="6"  height="120"/>
  <rect x="158" y="20" width="2"  height="120"/>
  <rect x="164" y="20" width="10" height="120"/>
  <rect x="178" y="20" width="4"  height="120"/>
  <rect x="186" y="20" width="2"  height="120"/>
  <rect x="192" y="20" width="6"  height="120"/>
  <rect x="202" y="20" width="2"  height="120"/>
  <rect x="208" y="20" width="4"  height="120"/>
  <rect x="216" y="20" width="8"  height="120"/>
  <rect x="228" y="20" width="2"  height="120"/>
  <rect x="234" y="20" width="4"  height="120"/>
  <rect x="242" y="20" width="2"  height="120"/>
  <rect x="248" y="20" width="6"  height="120"/>
  <rect x="258" y="20" width="2"  height="120"/>
  <rect x="264" y="20" width="10" height="120"/>
  <rect x="278" y="20" width="2"  height="120"/>
  <rect x="284" y="20" width="4"  height="120"/>
  <rect x="292" y="20" width="6"  height="120"/>
  <rect x="302" y="20" width="2"  height="120"/>
  <rect x="308" y="20" width="4"  height="120"/>
  <rect x="316" y="20" width="8"  height="120"/>
  <rect x="328" y="20" width="2"  height="120"/>
  <rect x="334" y="20" width="6"  height="120"/>
  <rect x="344" y="20" width="2"  height="120"/>
  <rect x="350" y="20" width="4"  height="120"/>
  <rect x="358" y="20" width="2"  height="120"/>
  <rect x="364" y="20" width="10" height="120"/>
  <rect x="378" y="20" width="4"  height="120"/>
  <rect x="386" y="20" width="2"  height="120"/>
  <rect x="392" y="20" width="6"  height="120"/>
  <rect x="402" y="20" width="2"  height="120"/>
  <rect x="408" y="20" width="8"  height="120"/>
  <rect x="420" y="20" width="2"  height="120"/>
  <rect x="426" y="20" width="4"  height="120"/>
  <rect x="434" y="20" width="2"  height="120"/>
  <rect x="440" y="20" width="6"  height="120"/>
  <rect x="450" y="20" width="10" height="120"/>
  <rect x="464" y="20" width="2"  height="120"/>
  <rect x="470" y="20" width="4"  height="120"/>
  <rect x="478" y="20" width="6"  height="120"/>
  <rect x="488" y="20" width="2"  height="120"/>
  <rect x="494" y="20" width="8"  height="120"/>
  <rect x="506" y="20" width="2"  height="120"/>
  <rect x="512" y="20" width="4"  height="120"/>
  <rect x="520" y="20" width="2"  height="120"/>
  <rect x="526" y="20" width="6"  height="120"/>
  <rect x="536" y="20" width="4"  height="120"/>
  <rect x="544" y="20" width="2"  height="120"/>
  <rect x="550" y="20" width="10" height="120"/>
  <rect x="564" y="20" width="2"  height="120"/>
  <rect x="570" y="20" width="4"  height="120"/>
  <rect x="578" y="20" width="6"  height="120"/>
  <rect x="588" y="20" width="4"  height="120"/>
</svg>
